# xmcd CD database file
#
# Track frame offsets:
#	150
#	17802
#	36530
#	53655
#	67120
#	82455
#	97762
#	114885
#	131697
#	148415
#	168700
#	183237
#
# Disc length: 2628 seconds
#
# Revision: 1
# Processed by: cddbd v1.4PL0 Copyright (c) Steve Scherf et al.
# Submitted via: CDex 1.50Beta7
#
DISCID=b00a420c
DTITLE=Ragazzi - Veneno
DYEAR=1997
DGENRE=Salsa
TTITLE0=Veneno
TTITLE1=Nadie Lo Entiende
TTITLE2=Ayudame
TTITLE3=Cuando Muere el Amor
TTITLE4=Hoy me he Dado Cuenta
TTITLE5=Amiga Veneno
TTITLE6=Que va a Ser de Mi
TTITLE7=Baila
TTITLE8=Mas Alla
TTITLE9=Oigo el Latir
TTITLE10=Amarrado
TTITLE11=Cada dia Mas
EXTD=YEAR: 1997
EXTT0=
EXTT1=
EXTT2=
EXTT3=
EXTT4=
EXTT5=
EXTT6=
EXTT7=
EXTT8=
EXTT9=
EXTT10=
EXTT11=
PLAYORDER=
